# xmcd CD database file
#
# Track frame offsets:
#	150
#	18896
#	41483
#	60292
#
# Disc length: 1102 seconds
#
# Revision: 3
# Processed by: cddbd v1.5.2PL0 Copyright (c) Steve Scherf et al.
# Submitted via: CDex 1.70beta2
#
DISCID=22044c04
DTITLE=三代目JSoulBrothers - Go my way
DYEAR=2012
DGENRE=J-POP
TTITLE0=Go my way
TTITLE1=最後のサクラ
TTITLE2=Go my way (Original Karaoke)
TTITLE3=最後のサクラ (Original Karaoke)
EXTD=YEAR: 2012
EXTT0=
EXTT1=
EXTT2=
EXTT3=
PLAYORDER=
